<mxfile host="app.diagrams.net" modified="2023-01-05T09:33:43.903Z" agent="5.0 (Windows NT 10.0; Win64; x64) AppleWebKit/537.36 (KHTML, like Gecko) Chrome/108.0.0.0 Safari/537.36" version="20.7.4" etag="N5okkTixhoGmQeYe3wp6" type="github">
  <diagram id="adT5Hj72i1SFzHfTn9DL" name="Page-1">
    <mxGraphModel dx="1562" dy="923" grid="1" gridSize="10" guides="1" tooltips="1" connect="1" arrows="1" fold="1" page="1" pageScale="1" pageWidth="827" pageHeight="1169" math="0" shadow="0">
      <root>
        <mxCell id="0" />
        <mxCell id="1" parent="0" />
        <mxCell id="MJwxScp5eWd2gxEu34i6-5" style="edgeStyle=orthogonalEdgeStyle;rounded=0;orthogonalLoop=1;jettySize=auto;html=1;" edge="1" parent="1" source="MJwxScp5eWd2gxEu34i6-1" target="MJwxScp5eWd2gxEu34i6-4">
          <mxGeometry relative="1" as="geometry" />
        </mxCell>
        <mxCell id="MJwxScp5eWd2gxEu34i6-1" value="1688商品" style="rounded=0;whiteSpace=wrap;html=1;" vertex="1" parent="1">
          <mxGeometry x="70" y="200" width="120" height="60" as="geometry" />
        </mxCell>
        <mxCell id="MJwxScp5eWd2gxEu34i6-6" style="edgeStyle=orthogonalEdgeStyle;rounded=0;orthogonalLoop=1;jettySize=auto;html=1;entryX=0;entryY=0.5;entryDx=0;entryDy=0;" edge="1" parent="1" source="MJwxScp5eWd2gxEu34i6-2" target="MJwxScp5eWd2gxEu34i6-4">
          <mxGeometry relative="1" as="geometry" />
        </mxCell>
        <mxCell id="MJwxScp5eWd2gxEu34i6-2" value="国内仓商品" style="rounded=0;whiteSpace=wrap;html=1;" vertex="1" parent="1">
          <mxGeometry x="70" y="310" width="120" height="60" as="geometry" />
        </mxCell>
        <mxCell id="MJwxScp5eWd2gxEu34i6-8" value="" style="edgeStyle=orthogonalEdgeStyle;rounded=0;orthogonalLoop=1;jettySize=auto;html=1;" edge="1" parent="1" source="MJwxScp5eWd2gxEu34i6-3" target="MJwxScp5eWd2gxEu34i6-7">
          <mxGeometry relative="1" as="geometry" />
        </mxCell>
        <mxCell id="MJwxScp5eWd2gxEu34i6-3" value="海外仓商品" style="rounded=0;whiteSpace=wrap;html=1;" vertex="1" parent="1">
          <mxGeometry x="70" y="420" width="120" height="60" as="geometry" />
        </mxCell>
        <mxCell id="MJwxScp5eWd2gxEu34i6-15" style="edgeStyle=orthogonalEdgeStyle;rounded=0;orthogonalLoop=1;jettySize=auto;html=1;" edge="1" parent="1" source="MJwxScp5eWd2gxEu34i6-4" target="MJwxScp5eWd2gxEu34i6-14">
          <mxGeometry relative="1" as="geometry" />
        </mxCell>
        <mxCell id="MJwxScp5eWd2gxEu34i6-4" value="国际物流" style="rounded=0;whiteSpace=wrap;html=1;" vertex="1" parent="1">
          <mxGeometry x="320" y="260" width="120" height="60" as="geometry" />
        </mxCell>
        <mxCell id="MJwxScp5eWd2gxEu34i6-16" style="edgeStyle=orthogonalEdgeStyle;rounded=0;orthogonalLoop=1;jettySize=auto;html=1;entryX=0.5;entryY=1;entryDx=0;entryDy=0;" edge="1" parent="1" source="MJwxScp5eWd2gxEu34i6-7" target="MJwxScp5eWd2gxEu34i6-14">
          <mxGeometry relative="1" as="geometry" />
        </mxCell>
        <mxCell id="MJwxScp5eWd2gxEu34i6-7" value="当地发货" style="rounded=0;whiteSpace=wrap;html=1;" vertex="1" parent="1">
          <mxGeometry x="320" y="420" width="120" height="60" as="geometry" />
        </mxCell>
        <mxCell id="MJwxScp5eWd2gxEu34i6-9" value="商品类型" style="rounded=1;whiteSpace=wrap;html=1;" vertex="1" parent="1">
          <mxGeometry x="70" y="90" width="120" height="60" as="geometry" />
        </mxCell>
        <mxCell id="MJwxScp5eWd2gxEu34i6-10" value="物流模式" style="rounded=1;whiteSpace=wrap;html=1;" vertex="1" parent="1">
          <mxGeometry x="320" y="90" width="120" height="60" as="geometry" />
        </mxCell>
        <mxCell id="MJwxScp5eWd2gxEu34i6-11" value="&lt;h1&gt;&lt;br&gt;&lt;/h1&gt;" style="text;html=1;strokeColor=none;fillColor=none;spacing=5;spacingTop=-20;whiteSpace=wrap;overflow=hidden;rounded=0;" vertex="1" parent="1">
          <mxGeometry x="35" y="60" width="190" height="120" as="geometry" />
        </mxCell>
        <mxCell id="MJwxScp5eWd2gxEu34i6-12" value="优惠卷" style="rounded=1;whiteSpace=wrap;html=1;" vertex="1" parent="1">
          <mxGeometry x="980" y="90" width="120" height="60" as="geometry" />
        </mxCell>
        <mxCell id="MJwxScp5eWd2gxEu34i6-13" value="活动金额" style="rounded=1;whiteSpace=wrap;html=1;" vertex="1" parent="1">
          <mxGeometry x="770" y="90" width="120" height="60" as="geometry" />
        </mxCell>
        <mxCell id="MJwxScp5eWd2gxEu34i6-18" value="" style="edgeStyle=orthogonalEdgeStyle;rounded=0;orthogonalLoop=1;jettySize=auto;html=1;" edge="1" parent="1" source="MJwxScp5eWd2gxEu34i6-14" target="MJwxScp5eWd2gxEu34i6-17">
          <mxGeometry relative="1" as="geometry" />
        </mxCell>
        <mxCell id="MJwxScp5eWd2gxEu34i6-14" value="商品维度的活动" style="rounded=0;whiteSpace=wrap;html=1;" vertex="1" parent="1">
          <mxGeometry x="770" y="330" width="120" height="60" as="geometry" />
        </mxCell>
        <mxCell id="MJwxScp5eWd2gxEu34i6-17" value="支付维度的优惠卷" style="rounded=0;whiteSpace=wrap;html=1;" vertex="1" parent="1">
          <mxGeometry x="980" y="330" width="120" height="60" as="geometry" />
        </mxCell>
        <mxCell id="MJwxScp5eWd2gxEu34i6-19" value="费用" style="rounded=1;whiteSpace=wrap;html=1;" vertex="1" parent="1">
          <mxGeometry x="560" y="90" width="120" height="60" as="geometry" />
        </mxCell>
        <mxCell id="MJwxScp5eWd2gxEu34i6-20" value="1688服务费,&lt;br&gt;1688运费&lt;br&gt;" style="rounded=0;whiteSpace=wrap;html=1;" vertex="1" parent="1">
          <mxGeometry x="560" y="260" width="120" height="60" as="geometry" />
        </mxCell>
        <mxCell id="MJwxScp5eWd2gxEu34i6-21" value="海外仓提货费用" style="rounded=0;whiteSpace=wrap;html=1;" vertex="1" parent="1">
          <mxGeometry x="560" y="420" width="120" height="60" as="geometry" />
        </mxCell>
        <mxCell id="MJwxScp5eWd2gxEu34i6-28" style="edgeStyle=orthogonalEdgeStyle;rounded=0;orthogonalLoop=1;jettySize=auto;html=1;" edge="1" parent="1" source="MJwxScp5eWd2gxEu34i6-24" target="MJwxScp5eWd2gxEu34i6-25">
          <mxGeometry relative="1" as="geometry" />
        </mxCell>
        <mxCell id="MJwxScp5eWd2gxEu34i6-31" value="采购运费" style="edgeLabel;html=1;align=center;verticalAlign=middle;resizable=0;points=[];" vertex="1" connectable="0" parent="MJwxScp5eWd2gxEu34i6-28">
          <mxGeometry x="-0.1846" y="3" relative="1" as="geometry">
            <mxPoint as="offset" />
          </mxGeometry>
        </mxCell>
        <mxCell id="MJwxScp5eWd2gxEu34i6-24" value="采购商家" style="rounded=1;whiteSpace=wrap;html=1;" vertex="1" parent="1">
          <mxGeometry x="70" y="600" width="120" height="60" as="geometry" />
        </mxCell>
        <mxCell id="MJwxScp5eWd2gxEu34i6-29" style="edgeStyle=orthogonalEdgeStyle;rounded=0;orthogonalLoop=1;jettySize=auto;html=1;entryX=0;entryY=0.5;entryDx=0;entryDy=0;" edge="1" parent="1" source="MJwxScp5eWd2gxEu34i6-25" target="MJwxScp5eWd2gxEu34i6-26">
          <mxGeometry relative="1" as="geometry" />
        </mxCell>
        <mxCell id="MJwxScp5eWd2gxEu34i6-32" value="运输运费" style="edgeLabel;html=1;align=center;verticalAlign=middle;resizable=0;points=[];" vertex="1" connectable="0" parent="MJwxScp5eWd2gxEu34i6-29">
          <mxGeometry x="-0.1833" y="-1" relative="1" as="geometry">
            <mxPoint as="offset" />
          </mxGeometry>
        </mxCell>
        <mxCell id="MJwxScp5eWd2gxEu34i6-25" value="国内仓库" style="rounded=1;whiteSpace=wrap;html=1;" vertex="1" parent="1">
          <mxGeometry x="320" y="600" width="120" height="60" as="geometry" />
        </mxCell>
        <mxCell id="MJwxScp5eWd2gxEu34i6-30" style="edgeStyle=orthogonalEdgeStyle;rounded=0;orthogonalLoop=1;jettySize=auto;html=1;entryX=0;entryY=0.5;entryDx=0;entryDy=0;" edge="1" parent="1" source="MJwxScp5eWd2gxEu34i6-26" target="MJwxScp5eWd2gxEu34i6-27">
          <mxGeometry relative="1" as="geometry">
            <Array as="points">
              <mxPoint x="770" y="630" />
              <mxPoint x="770" y="630" />
            </Array>
          </mxGeometry>
        </mxCell>
        <mxCell id="MJwxScp5eWd2gxEu34i6-33" value="提货费用" style="edgeLabel;html=1;align=center;verticalAlign=middle;resizable=0;points=[];" vertex="1" connectable="0" parent="MJwxScp5eWd2gxEu34i6-30">
          <mxGeometry x="-0.2667" y="4" relative="1" as="geometry">
            <mxPoint as="offset" />
          </mxGeometry>
        </mxCell>
        <mxCell id="MJwxScp5eWd2gxEu34i6-26" value="海外仓库" style="rounded=1;whiteSpace=wrap;html=1;" vertex="1" parent="1">
          <mxGeometry x="560" y="600" width="120" height="60" as="geometry" />
        </mxCell>
        <mxCell id="MJwxScp5eWd2gxEu34i6-27" value="驿站费用" style="rounded=1;whiteSpace=wrap;html=1;" vertex="1" parent="1">
          <mxGeometry x="850" y="600" width="120" height="60" as="geometry" />
        </mxCell>
      </root>
    </mxGraphModel>
  </diagram>
</mxfile>
